Coordinates
version=1
nRows=6
nColumns=52
inDegrees=yes

Units are S.I. units (second, meters, Newtons, ...)
If the header above contains a line with 'inDegrees', this indicates whether rotational values are in degrees (yes) or radians (no).

endheader
time	pelvis_tilt	pelvis_list	pelvis_rotation	pelvis_tx	pelvis_ty	pelvis_tz	hip_flexion_r	hip_adduction_r	hip_rotation_r	knee_angle_r	knee_angle_r_beta	ankle_angle_r	subtalar_angle_r	mtp_angle_r	hip_flexion_l	hip_adduction_l	hip_rotation_l	knee_angle_l	knee_angle_l_beta	ankle_angle_l	subtalar_angle_l	mtp_angle_l	lumbar_bending	lumbar_extension	lumbar_twist	thorax_bending	thorax_extension	thorax_twist	head_bending	head_extension	head_twist	scapula_abduction_r	scapula_elevation_r	scapula_upward_rot_r	scapula_abduction_l	scapula_elevation_l	scapula_upward_rot_l	shoulder_r_x	shoulder_r_y	shoulder_r_z	shoulder_l_x	shoulder_l_y	shoulder_l_z	elbow_flexion_r	elbow_flexion_l	pro_sup_r	pro_sup_l	wrist_flexion_r	wrist_deviation_r	wrist_flexion_l	wrist_deviation_l
      1.63333000	    -43.74407772	     -2.55308195	    -81.84792754	     -0.10426265	     -0.21951205	     84.76868946	     93.52339393	    -12.52437141	    -39.92035376	     26.39962837	      0.46076044	    -26.36913880	     -3.58530206	      5.97358470	     56.11545070	     26.38905324	     39.95568078	     68.25045357	      1.19119513	     29.79107767	    -19.90760762	     -4.64128973	     18.98271892	    -64.71793544	      9.03627018	     29.74772024	     11.79109812	    -45.97461776	     39.36643192	    -62.41386759	     15.27915493	    -51.61844515	      4.99283327	    -17.11490787	    -51.65493234	     -7.82693835	     39.59934683	     -6.74378230	     12.18045075	     43.90274891	    177.62105964	   -254.18355319	     87.86969492	     45.20043419	     -7.97262938	     59.77049328	     94.41509713	     -0.87073846	    -13.36064970	    -19.66470696	    -26.20182833
      1.66667000	    -45.52712798	     -3.58915799	    -80.10895453	     -0.10068789	     -0.23004595	     86.02574068	     92.65576630	    -13.11198462	    -39.92673193	     25.59170364	      0.44665949	    -26.18106597	     -1.81583526	      5.58265249	     51.50215648	     26.05567354	     39.96245122	     68.42043035	      1.19416179	     29.78669806	    -19.91337569	     -4.58981773	     24.07580504	    -64.71941306	      6.65928125	     29.74087690	     13.34271964	    -46.84696089	     28.70413403	    -62.41405765	     17.85817599	    -51.60559528	      5.59186823	    -17.11489251	    -51.63961265	     -7.82702851	     37.82658106	     -4.96231833	      9.35025284	     41.27429781	    178.22464643	   -251.81107459	     88.49076889	     44.15059140	     -7.70687256	     59.68186441	     94.12799090	     -0.91571619	    -12.84391936	    -20.13004758	    -25.81598976
      1.70000000	    -47.89368012	     -1.94171936	    -79.18320143	     -0.11022589	     -0.22695215	     87.02600500	     92.88802727	    -13.43541604	    -39.64596526	     25.48233147	      0.44475059	    -24.77356963	     -0.79252592	      5.02647573	     50.60761322	     22.50429911	     39.82856361	     68.07446419	      1.18812354	     29.17544526	    -19.53285163	     -4.20688583	     24.50663692	    -64.62936844	      5.42045835	     29.44836018	     10.48428946	    -46.32561982	     20.23100600	    -62.27491452	     16.97830101	    -51.79134223	      5.40114240	    -16.77203079	    -52.04412498	     -7.42194566	     36.44777792	     -1.36336179	     12.24583214	     41.22908914	    177.59697856	   -250.98193517	     88.11369713	     44.85699604	     -6.95369534	     59.68174576	     93.82370797	     -0.78024813	    -13.26325313	    -20.61351362	    -25.67330360
      1.73333000	    -50.73005696	      1.57818045	    -75.73481811	     -0.14339644	     -0.21094616	     88.86233480	     92.84666911	    -15.61631213	    -39.93558600	     25.02887298	      0.43683624	    -23.40576205	      0.45664659	      4.38372740	     50.06238163	     21.09535152	     39.96014597	     67.16060418	      1.17217367	     28.44230352	    -19.90093743	     -3.85069348	     26.44116910	    -64.72262360	      6.99776233	     29.74224171	      9.88269529	    -46.74573060	     11.42323038	    -62.41588545	     15.61150792	    -51.60659624	      5.30748568	    -17.09238276	    -53.72776960	     -8.11277789	     34.68186695	      1.76287615	     14.50667544	     41.28313762	    176.61333872	   -250.76288882	     87.31330292	     44.62447062	     -5.64645631	     59.82826520	     93.25508247	     -0.45187870	    -13.65627807	    -21.35088631	    -25.58593221
      1.76667000	    -54.73484359	      3.72279804	    -75.08471723	     -0.14417299	     -0.22720967	     89.60117860	     97.61766296	    -15.94015317	    -39.92955447	     22.74333972	      0.39694616	    -26.76535771	      4.08554476	      4.97462603	     45.92878156	     18.07289867	     39.96064893	     67.31001659	      1.17478141	     29.92400291	    -19.90534067	     -4.15075105	     30.41831234	    -64.72130546	     13.75968109	     29.74338747	     17.34902016	    -46.88940306	     -3.32296203	    -62.41635066	      9.02869119	    -51.60773101	      5.63935613	    -17.12278922	    -51.72312365	     -7.92695512	     30.36668062	      1.22088261	     13.46538954	     40.27585888	    179.13952318	   -245.14574982	     89.99992354	     43.66306105	     -6.92742043	     59.84896841	     91.91439488	     -0.41134196	    -13.69951566	    -21.48521202	    -23.21356729
      1.80000000	    -54.51768495	      6.34953956	    -76.13060971	     -0.16418377	     -0.23076504	     89.73389050	     97.19276589	    -12.75591899	    -39.93715393	     21.15586135	      0.36923944	    -29.65406871	      6.89967222	      5.81758616	     50.21085845	     17.10724368	     39.94996842	     67.89984975	      1.18507594	     29.41601051	    -19.85262916	     -4.93049275	     25.88034861	    -64.72406922	     10.97572521	     29.76062657	     17.68156206	    -46.86954019	    -10.69938126	    -62.41596477	     -9.15843426	    -51.60296858	      5.48637234	    -17.09646246	    -51.90702303	    -10.09430361	     22.81519966	      3.94624836	     16.23501187	     38.55891785	    178.08003759	   -244.60870881	     88.40186731	     42.72594735	     -6.68122817	     59.69384801	     89.42207265	     -0.37927220	    -13.55622624	    -22.64496894	    -19.84637609
